<?xml version="1.0" encoding="utf-8"?>
<!-- Generator: Adobe Illustrator 20.1.0, SVG Export Plug-In . SVG Version: 6.00 Build 0)  -->
<svg version="1.1" id="Layer_1" xmlns="http://www.w3.org/2000/svg" xmlns:xlink="http://www.w3.org/1999/xlink" x="0px" y="0px"
	 viewBox="0 0 110.121094 59.402798" style="enable-background:new 0 0 110.121094 59.402798;" xml:space="preserve">
<path style="fill: #3c4cf9;" d="M28.8291,16.3125C33.8428,6.4726,44.052799,0,55.220699,0c11.784199,0,22.1329,6.8613,26.914097,17.347599
	c0.390602,0.850601,0.8106,1.1397,1.705101,1.1201c5.998001-0.122999,12.6894-1.0488,21.224602-5.427699
	c0,0,2.511711-1.22261,2.482399-1.2529c1.113312-0.707,1.740311-0.3819,2.093796,0.678699
	c0.353516,1.05959,0.4804,5.1103,0.4804,6.0117c0,5.153801-1.560493,9.591301-4.650398,13.2124
	c-5.408195,6.345699-14.279198,8.746101-21.787094,9.584c-0.974602,0.109402-1.375,0.357399-1.714806,1.082001
	c-4.861298,10.291-15.182587,17.046898-26.748096,17.046898c-11.995102,0-22.703098-7.371098-27.2763-18.246098
	c-0.297899-0.709-0.498999-0.863312-1.325193-0.847603C20.638699,40.422298,13.6495,41.328598,5.0469,45.7407
	c0,0-2.2041,1.122997-2.2012,1.089798c-0.7597,0.4063-2.311494-0.082001-2.5029-1.632797
	c-0.1875-1.546803-0.2051-2.1269-0.2051-2.1269C0.0459,42.150898,0,41.252388,0,40.3755
	c0-5.089901,1.5557-9.502001,4.6387-13.136801c5.9131-6.9741,16.042999-9.29631,23.001999-10.0581
	C28.3741,17.0986,28.583099,16.7939,28.8291,16.3125z M81.4571,38.107899C89.154297,37.492599,107.787209,34.492599,106.6875,17
	c-0.041-0.64361-0.345703-0.8067-1.169899-0.407301c-9.757805,4.7715-17.439392,5.328201-23.908203,5.2833
	c-1.296898-0.0098-1.435501-0.5938-1.738297-1.4063C76.128998,10.4892,66.504898,3.3847,55.220699,3.3847
	c-10.913002,0-20.2509,6.653399-24.237301,16.112301c-0.166899,0.3916-0.500898,0.8125-1.2421,0.870199
	C22.1036,20.9785,2.4444,24.0688,3.4161,41.639099c0.042,0.673901,0.25,1,0.9043,0.6758
	c10.039999-4.959,17.9921-5.472599,24.597599-5.410099c0.577208,0.003899,1.044001,0.1679,1.221701,0.734299
	C33.506901,48.2915,43.450207,56.0219,55.220699,56.0219c11.240299,0,20.81451-7.060513,24.582096-16.9804
	C80.039101,38.432098,80.5,38.182098,81.4571,38.107899z M51.7159,49.516098
	C42.785206,47.789497,35.8643,40.139099,35.451206,30.6567c-0.454105-10.450701,7.156292-19.3589,17.305691-20.7651
	c0.796902-0.1231,1.033203,0.331,1.117203,0.54879c2.121998,5.40821,2.216801,12.761209-0.555702,19.438999
	c-2.644497,6.646509-3.012699,13.460909-1.066399,18.90431C52.4981,49.475098,52.043999,49.580498,51.7159,49.516098z
	 M48.024498,42.902798c-0.532291-5.77541-0.105499-8.894497,1.864201-13.242199
	c3.022507-6.667999,3.0098-11.008299,1.579102-15.601999c-0.058594-0.1875-0.2197-0.5713-0.7519-0.4678
	c-5.662102,0.9902-12.408203,8.4189-12.024403,16.694799c0.267502,5.6856,5.223602,13.167999,8.444302,13.953098
	C48.017597,44.453598,48.147499,44.2407,48.024498,42.902798z M58.6563,9.8877
	c8.928699,1.725599,15.847698,9.376899,16.263699,18.856899c0.457001,10.453102-7.157303,19.359402-17.309601,20.7715
	c-0.792,0.119102-1.0303-0.332001-1.116192-0.55471C54.3741,43.559097,54.2813,36.201599,57.053799,29.5278
	c2.644501-6.6465,3.012699-13.461411,1.066406-18.909698C57.8741,9.928699,58.326206,9.8271,58.6563,9.8877z M62.348698,16.500999
	c0.534203,5.778799,0.1064,8.895901-1.868198,13.243599c-3.0224,6.666-3.004902,11.005901-1.578102,15.599602
	c0.058601,0.1875,0.2187,0.574188,0.7519,0.4688c5.6661-0.990299,12.410202-8.420002,12.0215-16.6954
	c-0.261696-5.6835-5.221695-13.1674-8.4394-13.9487C62.3526,14.9502,62.225597,15.165,62.348698,16.500999z"/>
</svg>
